<svg xmlns="http://www.w3.org/2000/svg" viewBox="0 0 64 64" width="64" height="64">
  <defs>
    <linearGradient id="bg" x1="0" y1="0" x2="1" y2="1">
      <stop offset="0" stop-color="#1a3a7a"/>
      <stop offset="1" stop-color="#0e5a45"/>
    </linearGradient>
  </defs>
  <rect width="64" height="64" rx="14" fill="url(#bg)"/>
  <!-- book spine shadow -->
  <path d="M32 16.5c-4.6-2.8-10-3.4-15-2.1-1 .26-1.7 1.16-1.7 2.2v25.6c0 1.4 1.3 2.42 2.66 2.1 4.3-1 8.9-.5 12.9 1.7 .74.4 1.62.4 2.36 0 4-2.2 8.6-2.7 12.9-1.7 1.36.32 2.66-.7 2.66-2.1V16.6c0-1.04-.7-1.94-1.7-2.2-5-1.3-10.4-.7-15 2.1z" fill="#ffffff"/>
  <!-- center gutter -->
  <path d="M32 16.5v29.9" stroke="#0e5a45" stroke-width="2.4" stroke-linecap="round"/>
  <!-- text lines left -->
  <path d="M20.5 23h7.5M20.5 28h7.5M20.5 33h6" stroke="#1a3a7a" stroke-width="2" stroke-linecap="round"/>
  <!-- text lines right -->
  <path d="M36 23h7.5M36 28h7.5M36 33h6" stroke="#1a3a7a" stroke-width="2" stroke-linecap="round"/>
</svg>
